<mxfile host="app.diagrams.net" agent="Mozilla/5.0 (Windows NT 10.0; Win64; x64) AppleWebKit/537.36 (KHTML, like Gecko) Chrome/129.0.0.0 Safari/537.36" version="24.7.17">
  <diagram name="Trang-1" id="ji2oaNTb5m6djoohmxuM">
    <mxGraphModel dx="1750" dy="870" grid="1" gridSize="10" guides="1" tooltips="1" connect="1" arrows="1" fold="1" page="1" pageScale="1" pageWidth="827" pageHeight="1169" math="0" shadow="0">
      <root>
        <mxCell id="0" />
        <mxCell id="1" parent="0" />
        <mxCell id="aWg2RYfH6NTklVDcjYUc-15" style="rounded=0;orthogonalLoop=1;jettySize=auto;html=1;entryX=1;entryY=0.5;entryDx=0;entryDy=0;" edge="1" parent="1" source="aWg2RYfH6NTklVDcjYUc-1" target="aWg2RYfH6NTklVDcjYUc-10">
          <mxGeometry relative="1" as="geometry" />
        </mxCell>
        <mxCell id="aWg2RYfH6NTklVDcjYUc-16" style="rounded=0;orthogonalLoop=1;jettySize=auto;html=1;" edge="1" parent="1" source="aWg2RYfH6NTklVDcjYUc-1" target="aWg2RYfH6NTklVDcjYUc-12">
          <mxGeometry relative="1" as="geometry" />
        </mxCell>
        <mxCell id="aWg2RYfH6NTklVDcjYUc-17" style="edgeStyle=none;rounded=0;orthogonalLoop=1;jettySize=auto;html=1;" edge="1" parent="1" source="aWg2RYfH6NTklVDcjYUc-1" target="aWg2RYfH6NTklVDcjYUc-13">
          <mxGeometry relative="1" as="geometry" />
        </mxCell>
        <mxCell id="aWg2RYfH6NTklVDcjYUc-18" style="edgeStyle=none;rounded=0;orthogonalLoop=1;jettySize=auto;html=1;entryX=1;entryY=0.5;entryDx=0;entryDy=0;" edge="1" parent="1" source="aWg2RYfH6NTklVDcjYUc-1" target="aWg2RYfH6NTklVDcjYUc-14">
          <mxGeometry relative="1" as="geometry" />
        </mxCell>
        <mxCell id="aWg2RYfH6NTklVDcjYUc-30" style="edgeStyle=none;rounded=0;orthogonalLoop=1;jettySize=auto;html=1;entryX=1;entryY=0.5;entryDx=0;entryDy=0;" edge="1" parent="1" source="aWg2RYfH6NTklVDcjYUc-1" target="aWg2RYfH6NTklVDcjYUc-24">
          <mxGeometry relative="1" as="geometry" />
        </mxCell>
        <mxCell id="aWg2RYfH6NTklVDcjYUc-45" style="edgeStyle=none;rounded=0;orthogonalLoop=1;jettySize=auto;html=1;entryX=1;entryY=1;entryDx=0;entryDy=0;" edge="1" parent="1" source="aWg2RYfH6NTklVDcjYUc-1" target="aWg2RYfH6NTklVDcjYUc-6">
          <mxGeometry relative="1" as="geometry" />
        </mxCell>
        <mxCell id="aWg2RYfH6NTklVDcjYUc-1" value="Quản lý" style="shape=umlActor;verticalLabelPosition=bottom;verticalAlign=top;html=1;outlineConnect=0;" vertex="1" parent="1">
          <mxGeometry x="790" y="380" width="30" height="60" as="geometry" />
        </mxCell>
        <mxCell id="aWg2RYfH6NTklVDcjYUc-8" style="rounded=0;orthogonalLoop=1;jettySize=auto;html=1;entryX=0;entryY=0.5;entryDx=0;entryDy=0;" edge="1" parent="1" source="aWg2RYfH6NTklVDcjYUc-2" target="aWg2RYfH6NTklVDcjYUc-6">
          <mxGeometry relative="1" as="geometry" />
        </mxCell>
        <mxCell id="aWg2RYfH6NTklVDcjYUc-31" style="edgeStyle=none;rounded=0;orthogonalLoop=1;jettySize=auto;html=1;" edge="1" parent="1" source="aWg2RYfH6NTklVDcjYUc-2" target="aWg2RYfH6NTklVDcjYUc-26">
          <mxGeometry relative="1" as="geometry" />
        </mxCell>
        <mxCell id="aWg2RYfH6NTklVDcjYUc-32" style="edgeStyle=none;rounded=0;orthogonalLoop=1;jettySize=auto;html=1;entryX=0;entryY=0;entryDx=0;entryDy=0;" edge="1" parent="1" source="aWg2RYfH6NTklVDcjYUc-2" target="aWg2RYfH6NTklVDcjYUc-27">
          <mxGeometry relative="1" as="geometry" />
        </mxCell>
        <mxCell id="aWg2RYfH6NTklVDcjYUc-46" style="edgeStyle=none;rounded=0;orthogonalLoop=1;jettySize=auto;html=1;entryX=0;entryY=1;entryDx=0;entryDy=0;" edge="1" parent="1" source="aWg2RYfH6NTklVDcjYUc-2" target="aWg2RYfH6NTklVDcjYUc-7">
          <mxGeometry relative="1" as="geometry" />
        </mxCell>
        <mxCell id="aWg2RYfH6NTklVDcjYUc-2" value="Guest" style="shape=umlActor;verticalLabelPosition=bottom;verticalAlign=top;html=1;outlineConnect=0;" vertex="1" parent="1">
          <mxGeometry x="50" y="190" width="30" height="60" as="geometry" />
        </mxCell>
        <mxCell id="aWg2RYfH6NTklVDcjYUc-29" style="edgeStyle=none;rounded=0;orthogonalLoop=1;jettySize=auto;html=1;entryX=0.5;entryY=1;entryDx=0;entryDy=0;" edge="1" parent="1" source="aWg2RYfH6NTklVDcjYUc-3" target="aWg2RYfH6NTklVDcjYUc-24">
          <mxGeometry relative="1" as="geometry">
            <mxPoint x="80" y="540" as="targetPoint" />
          </mxGeometry>
        </mxCell>
        <mxCell id="aWg2RYfH6NTklVDcjYUc-33" style="edgeStyle=none;rounded=0;orthogonalLoop=1;jettySize=auto;html=1;entryX=0.5;entryY=1;entryDx=0;entryDy=0;" edge="1" parent="1" source="aWg2RYfH6NTklVDcjYUc-3" target="aWg2RYfH6NTklVDcjYUc-28">
          <mxGeometry relative="1" as="geometry" />
        </mxCell>
        <mxCell id="aWg2RYfH6NTklVDcjYUc-34" style="edgeStyle=none;rounded=0;orthogonalLoop=1;jettySize=auto;html=1;entryX=0;entryY=0.5;entryDx=0;entryDy=0;" edge="1" parent="1" source="aWg2RYfH6NTklVDcjYUc-3" target="aWg2RYfH6NTklVDcjYUc-26">
          <mxGeometry relative="1" as="geometry" />
        </mxCell>
        <mxCell id="aWg2RYfH6NTklVDcjYUc-42" style="edgeStyle=none;rounded=0;orthogonalLoop=1;jettySize=auto;html=1;entryX=0;entryY=1;entryDx=0;entryDy=0;" edge="1" parent="1" source="aWg2RYfH6NTklVDcjYUc-3" target="aWg2RYfH6NTklVDcjYUc-40">
          <mxGeometry relative="1" as="geometry" />
        </mxCell>
        <mxCell id="aWg2RYfH6NTklVDcjYUc-43" style="edgeStyle=none;rounded=0;orthogonalLoop=1;jettySize=auto;html=1;entryX=0;entryY=0.5;entryDx=0;entryDy=0;" edge="1" parent="1" source="aWg2RYfH6NTklVDcjYUc-3" target="aWg2RYfH6NTklVDcjYUc-41">
          <mxGeometry relative="1" as="geometry" />
        </mxCell>
        <mxCell id="aWg2RYfH6NTklVDcjYUc-3" value="Customer" style="shape=umlActor;verticalLabelPosition=bottom;verticalAlign=top;html=1;outlineConnect=0;" vertex="1" parent="1">
          <mxGeometry x="50" y="620" width="30" height="60" as="geometry" />
        </mxCell>
        <mxCell id="aWg2RYfH6NTklVDcjYUc-4" value="" style="swimlane;startSize=0;" vertex="1" parent="1">
          <mxGeometry x="130" y="30" width="630" height="770" as="geometry" />
        </mxCell>
        <mxCell id="aWg2RYfH6NTklVDcjYUc-9" style="rounded=0;orthogonalLoop=1;jettySize=auto;html=1;entryX=0.5;entryY=1;entryDx=0;entryDy=0;" edge="1" parent="aWg2RYfH6NTklVDcjYUc-4" source="aWg2RYfH6NTklVDcjYUc-6" target="aWg2RYfH6NTklVDcjYUc-7">
          <mxGeometry relative="1" as="geometry" />
        </mxCell>
        <mxCell id="aWg2RYfH6NTklVDcjYUc-6" value="Đăng nhập" style="ellipse;whiteSpace=wrap;html=1;" vertex="1" parent="aWg2RYfH6NTklVDcjYUc-4">
          <mxGeometry x="40" y="80" width="80" height="50" as="geometry" />
        </mxCell>
        <mxCell id="aWg2RYfH6NTklVDcjYUc-7" value="Đăng kí" style="ellipse;whiteSpace=wrap;html=1;" vertex="1" parent="aWg2RYfH6NTklVDcjYUc-4">
          <mxGeometry x="40" width="80" height="50" as="geometry" />
        </mxCell>
        <mxCell id="aWg2RYfH6NTklVDcjYUc-19" style="edgeStyle=none;rounded=0;orthogonalLoop=1;jettySize=auto;html=1;entryX=0.5;entryY=0;entryDx=0;entryDy=0;" edge="1" parent="aWg2RYfH6NTklVDcjYUc-4" source="aWg2RYfH6NTklVDcjYUc-10" target="aWg2RYfH6NTklVDcjYUc-11">
          <mxGeometry relative="1" as="geometry" />
        </mxCell>
        <mxCell id="aWg2RYfH6NTklVDcjYUc-10" value="Quản lý Food" style="ellipse;whiteSpace=wrap;html=1;" vertex="1" parent="aWg2RYfH6NTklVDcjYUc-4">
          <mxGeometry x="400" y="180" width="100" height="60" as="geometry" />
        </mxCell>
        <mxCell id="aWg2RYfH6NTklVDcjYUc-11" value="Thêm, sửa, xem, xoá(mềm)" style="ellipse;whiteSpace=wrap;html=1;" vertex="1" parent="aWg2RYfH6NTklVDcjYUc-4">
          <mxGeometry x="290" y="320" width="100" height="60" as="geometry" />
        </mxCell>
        <mxCell id="aWg2RYfH6NTklVDcjYUc-20" style="edgeStyle=none;rounded=0;orthogonalLoop=1;jettySize=auto;html=1;" edge="1" parent="aWg2RYfH6NTklVDcjYUc-4" source="aWg2RYfH6NTklVDcjYUc-12" target="aWg2RYfH6NTklVDcjYUc-11">
          <mxGeometry relative="1" as="geometry" />
        </mxCell>
        <mxCell id="aWg2RYfH6NTklVDcjYUc-12" value="Quản lý Combo" style="ellipse;whiteSpace=wrap;html=1;" vertex="1" parent="aWg2RYfH6NTklVDcjYUc-4">
          <mxGeometry x="410" y="310" width="100" height="60" as="geometry" />
        </mxCell>
        <mxCell id="aWg2RYfH6NTklVDcjYUc-21" style="edgeStyle=none;rounded=0;orthogonalLoop=1;jettySize=auto;html=1;" edge="1" parent="aWg2RYfH6NTklVDcjYUc-4" source="aWg2RYfH6NTklVDcjYUc-13" target="aWg2RYfH6NTklVDcjYUc-11">
          <mxGeometry relative="1" as="geometry" />
        </mxCell>
        <mxCell id="aWg2RYfH6NTklVDcjYUc-13" value="Quản lý Profile" style="ellipse;whiteSpace=wrap;html=1;" vertex="1" parent="aWg2RYfH6NTklVDcjYUc-4">
          <mxGeometry x="390" y="440" width="100" height="60" as="geometry" />
        </mxCell>
        <mxCell id="aWg2RYfH6NTklVDcjYUc-14" value="Quản lý Order" style="ellipse;whiteSpace=wrap;html=1;" vertex="1" parent="aWg2RYfH6NTklVDcjYUc-4">
          <mxGeometry x="400" y="570" width="100" height="60" as="geometry" />
        </mxCell>
        <mxCell id="aWg2RYfH6NTklVDcjYUc-22" style="edgeStyle=none;rounded=0;orthogonalLoop=1;jettySize=auto;html=1;entryX=0.389;entryY=1.067;entryDx=0;entryDy=0;entryPerimeter=0;" edge="1" parent="aWg2RYfH6NTklVDcjYUc-4" source="aWg2RYfH6NTklVDcjYUc-14" target="aWg2RYfH6NTklVDcjYUc-11">
          <mxGeometry relative="1" as="geometry" />
        </mxCell>
        <mxCell id="aWg2RYfH6NTklVDcjYUc-25" style="edgeStyle=none;rounded=0;orthogonalLoop=1;jettySize=auto;html=1;entryX=1;entryY=0.5;entryDx=0;entryDy=0;" edge="1" parent="aWg2RYfH6NTklVDcjYUc-4" source="aWg2RYfH6NTklVDcjYUc-24" target="aWg2RYfH6NTklVDcjYUc-6">
          <mxGeometry relative="1" as="geometry" />
        </mxCell>
        <mxCell id="aWg2RYfH6NTklVDcjYUc-24" value="Update Profile" style="ellipse;whiteSpace=wrap;html=1;" vertex="1" parent="aWg2RYfH6NTklVDcjYUc-4">
          <mxGeometry x="410" y="90" width="80" height="50" as="geometry" />
        </mxCell>
        <mxCell id="aWg2RYfH6NTklVDcjYUc-27" value="ComboList" style="ellipse;whiteSpace=wrap;html=1;" vertex="1" parent="aWg2RYfH6NTklVDcjYUc-4">
          <mxGeometry x="20" y="360" width="100" height="50" as="geometry" />
        </mxCell>
        <mxCell id="aWg2RYfH6NTklVDcjYUc-37" style="edgeStyle=none;rounded=0;orthogonalLoop=1;jettySize=auto;html=1;entryX=1;entryY=0.5;entryDx=0;entryDy=0;" edge="1" parent="aWg2RYfH6NTklVDcjYUc-4" source="aWg2RYfH6NTklVDcjYUc-28" target="aWg2RYfH6NTklVDcjYUc-27">
          <mxGeometry relative="1" as="geometry" />
        </mxCell>
        <mxCell id="aWg2RYfH6NTklVDcjYUc-28" value="Add to Cart" style="ellipse;whiteSpace=wrap;html=1;" vertex="1" parent="aWg2RYfH6NTklVDcjYUc-4">
          <mxGeometry x="150" y="275" width="100" height="60" as="geometry" />
        </mxCell>
        <mxCell id="aWg2RYfH6NTklVDcjYUc-39" style="edgeStyle=none;rounded=0;orthogonalLoop=1;jettySize=auto;html=1;entryX=0.4;entryY=0;entryDx=0;entryDy=0;entryPerimeter=0;" edge="1" parent="aWg2RYfH6NTklVDcjYUc-4" source="aWg2RYfH6NTklVDcjYUc-38" target="aWg2RYfH6NTklVDcjYUc-28">
          <mxGeometry relative="1" as="geometry" />
        </mxCell>
        <mxCell id="aWg2RYfH6NTklVDcjYUc-38" value="Payment" style="ellipse;whiteSpace=wrap;html=1;" vertex="1" parent="aWg2RYfH6NTklVDcjYUc-4">
          <mxGeometry x="140" y="190" width="100" height="60" as="geometry" />
        </mxCell>
        <mxCell id="aWg2RYfH6NTklVDcjYUc-40" value="OrderHistory" style="ellipse;whiteSpace=wrap;html=1;" vertex="1" parent="aWg2RYfH6NTklVDcjYUc-4">
          <mxGeometry x="100" y="475" width="100" height="65" as="geometry" />
        </mxCell>
        <mxCell id="aWg2RYfH6NTklVDcjYUc-41" value="Order hasn&#39;t been completed" style="ellipse;whiteSpace=wrap;html=1;" vertex="1" parent="aWg2RYfH6NTklVDcjYUc-4">
          <mxGeometry x="200" y="540" width="100" height="65" as="geometry" />
        </mxCell>
        <mxCell id="aWg2RYfH6NTklVDcjYUc-26" value="FoodList" style="ellipse;whiteSpace=wrap;html=1;" vertex="1" parent="aWg2RYfH6NTklVDcjYUc-4">
          <mxGeometry x="30" y="280" width="100" height="50" as="geometry" />
        </mxCell>
        <mxCell id="aWg2RYfH6NTklVDcjYUc-36" style="edgeStyle=none;rounded=0;orthogonalLoop=1;jettySize=auto;html=1;" edge="1" parent="aWg2RYfH6NTklVDcjYUc-4" source="aWg2RYfH6NTklVDcjYUc-28" target="aWg2RYfH6NTklVDcjYUc-26">
          <mxGeometry relative="1" as="geometry" />
        </mxCell>
        <mxCell id="aWg2RYfH6NTklVDcjYUc-35" style="edgeStyle=none;rounded=0;orthogonalLoop=1;jettySize=auto;html=1;entryX=0.282;entryY=0.963;entryDx=0;entryDy=0;entryPerimeter=0;" edge="1" parent="1" source="aWg2RYfH6NTklVDcjYUc-3" target="aWg2RYfH6NTklVDcjYUc-27">
          <mxGeometry relative="1" as="geometry" />
        </mxCell>
        <mxCell id="aWg2RYfH6NTklVDcjYUc-44" style="edgeStyle=none;rounded=0;orthogonalLoop=1;jettySize=auto;html=1;entryX=0.325;entryY=0.94;entryDx=0;entryDy=0;entryPerimeter=0;" edge="1" parent="1" source="aWg2RYfH6NTklVDcjYUc-3" target="aWg2RYfH6NTklVDcjYUc-6">
          <mxGeometry relative="1" as="geometry" />
        </mxCell>
      </root>
    </mxGraphModel>
  </diagram>
</mxfile>
